<mxfile host="app.diagrams.net" agent="Mozilla/5.0 (Macintosh; Intel Mac OS X 10_15_7) AppleWebKit/537.36 (KHTML, like Gecko) Chrome/134.0.0.0 Safari/537.36" version="26.1.0">
  <diagram name="Page-1" id="7jBwbJ5MqNQtD7_b7JIK">
    <mxGraphModel dx="1026" dy="624" grid="1" gridSize="10" guides="1" tooltips="1" connect="1" arrows="1" fold="1" page="1" pageScale="1" pageWidth="850" pageHeight="1100" math="0" shadow="0">
      <root>
        <mxCell id="0" />
        <mxCell id="1" parent="0" />
        <mxCell id="v4QRVOHur0yGDhManySC-21" value="Maestro Server&lt;br&gt;&lt;br&gt;&lt;br&gt;&lt;br&gt;&lt;br&gt;&lt;br&gt;&lt;br&gt;&lt;br&gt;&lt;br&gt;&lt;br&gt;&lt;br&gt;&lt;br&gt;&lt;br&gt;&lt;br&gt;&lt;br&gt;&lt;br&gt;&lt;br&gt;&lt;br&gt;&lt;br&gt;&lt;br&gt;&lt;br&gt;&lt;br&gt;&lt;div&gt;&lt;br&gt;&lt;/div&gt;&lt;div&gt;&lt;br&gt;&lt;/div&gt;&lt;div&gt;&lt;br&gt;&lt;/div&gt;" style="rounded=1;whiteSpace=wrap;html=1;arcSize=3;fillColor=#dae8fc;strokeColor=none;" parent="1" vertex="1">
          <mxGeometry x="95" y="250" width="500" height="390" as="geometry" />
        </mxCell>
        <mxCell id="v4QRVOHur0yGDhManySC-2" value="API Server&lt;br&gt;&lt;br&gt;&lt;br&gt;&lt;br&gt;&lt;div&gt;&lt;br&gt;&lt;/div&gt;&lt;div&gt;&lt;br&gt;&lt;/div&gt;" style="rounded=1;whiteSpace=wrap;html=1;strokeColor=none;" parent="1" vertex="1">
          <mxGeometry x="106" y="375" width="163" height="100" as="geometry" />
        </mxCell>
        <mxCell id="v4QRVOHur0yGDhManySC-4" value="Health Check Server" style="rounded=1;whiteSpace=wrap;html=1;" parent="1" vertex="1">
          <mxGeometry x="109" y="311" width="120" height="22" as="geometry" />
        </mxCell>
        <mxCell id="v4QRVOHur0yGDhManySC-5" value="MQ Event Server&lt;br&gt;&lt;br&gt;&lt;br&gt;&lt;div&gt;&lt;br&gt;&lt;/div&gt;&lt;div&gt;&lt;br&gt;&lt;/div&gt;&lt;div&gt;&lt;br&gt;&lt;/div&gt;" style="rounded=1;whiteSpace=wrap;html=1;strokeColor=none;" parent="1" vertex="1">
          <mxGeometry x="424" y="380" width="163" height="100" as="geometry" />
        </mxCell>
        <mxCell id="v4QRVOHur0yGDhManySC-7" value="Restful API Server" style="rounded=1;whiteSpace=wrap;html=1;" parent="1" vertex="1">
          <mxGeometry x="121" y="399" width="138" height="30" as="geometry" />
        </mxCell>
        <mxCell id="v4QRVOHur0yGDhManySC-8" value="gRPC Server" style="rounded=1;whiteSpace=wrap;html=1;" parent="1" vertex="1">
          <mxGeometry x="121" y="439" width="138" height="30" as="geometry" />
        </mxCell>
        <mxCell id="v4QRVOHur0yGDhManySC-13" value="Source Client" style="rounded=1;whiteSpace=wrap;html=1;" parent="1" vertex="1">
          <mxGeometry x="439" y="408" width="138" height="30" as="geometry" />
        </mxCell>
        <mxCell id="v4QRVOHur0yGDhManySC-14" value="Status Dispatcher" style="rounded=1;whiteSpace=wrap;html=1;" parent="1" vertex="1">
          <mxGeometry x="439" y="444" width="138" height="30" as="geometry" />
        </mxCell>
        <mxCell id="v4QRVOHur0yGDhManySC-17" value="Metrics Server" style="rounded=1;whiteSpace=wrap;html=1;" parent="1" vertex="1">
          <mxGeometry x="109" y="338" width="120" height="22" as="geometry" />
        </mxCell>
        <mxCell id="v4QRVOHur0yGDhManySC-18" value="Controllers Server&lt;br&gt;&lt;br&gt;&lt;br&gt;&lt;div&gt;&lt;br&gt;&lt;/div&gt;&lt;div&gt;&lt;br&gt;&lt;/div&gt;&lt;div&gt;&lt;br&gt;&lt;/div&gt;&lt;div&gt;&lt;br&gt;&lt;/div&gt;" style="rounded=1;whiteSpace=wrap;html=1;strokeColor=none;" parent="1" vertex="1">
          <mxGeometry x="318" y="510" width="149" height="113" as="geometry" />
        </mxCell>
        <mxCell id="v4QRVOHur0yGDhManySC-19" value="Kind Controller Manager" style="rounded=1;whiteSpace=wrap;html=1;" parent="1" vertex="1">
          <mxGeometry x="333" y="538" width="124" height="30" as="geometry" />
        </mxCell>
        <mxCell id="v4QRVOHur0yGDhManySC-20" value="Status Controller" style="rounded=1;whiteSpace=wrap;html=1;" parent="1" vertex="1">
          <mxGeometry x="332" y="582" width="124" height="30" as="geometry" />
        </mxCell>
        <mxCell id="v4QRVOHur0yGDhManySC-26" value="MQTT Broker" style="rounded=1;whiteSpace=wrap;html=1;fillColor=#f5f5f5;fontColor=#333333;strokeColor=default;" parent="1" vertex="1">
          <mxGeometry x="703" y="408" width="57" height="67" as="geometry" />
        </mxCell>
        <mxCell id="v4QRVOHur0yGDhManySC-27" value="Maestro Agent" style="rounded=1;whiteSpace=wrap;html=1;arcSize=10;fillColor=#dae8fc;strokeColor=none;" parent="1" vertex="1">
          <mxGeometry x="783" y="416.5" width="62" height="50" as="geometry" />
        </mxCell>
        <mxCell id="v4QRVOHur0yGDhManySC-32" value="gRPC Client" style="rounded=1;whiteSpace=wrap;html=1;arcSize=10;" parent="1" vertex="1">
          <mxGeometry x="10" y="430" width="45" height="39" as="geometry" />
        </mxCell>
        <mxCell id="v4QRVOHur0yGDhManySC-34" value="" style="endArrow=classic;html=1;rounded=0;entryX=0;entryY=0.25;entryDx=0;entryDy=0;startArrow=none;startFill=0;" parent="1" target="v4QRVOHur0yGDhManySC-8" edge="1">
          <mxGeometry width="50" height="50" relative="1" as="geometry">
            <mxPoint x="60" y="447" as="sourcePoint" />
            <mxPoint x="405" y="350" as="targetPoint" />
          </mxGeometry>
        </mxCell>
        <mxCell id="v4QRVOHur0yGDhManySC-101" value="1.spec" style="edgeLabel;html=1;align=center;verticalAlign=middle;resizable=0;points=[];" parent="v4QRVOHur0yGDhManySC-34" vertex="1" connectable="0">
          <mxGeometry x="-0.2889" relative="1" as="geometry">
            <mxPoint x="4" as="offset" />
          </mxGeometry>
        </mxCell>
        <mxCell id="v4QRVOHur0yGDhManySC-35" value="" style="endArrow=none;html=1;rounded=0;entryX=0;entryY=0.5;entryDx=0;entryDy=0;exitX=1;exitY=0.75;exitDx=0;exitDy=0;startArrow=classic;startFill=1;" parent="1" source="v4QRVOHur0yGDhManySC-32" target="v4QRVOHur0yGDhManySC-8" edge="1">
          <mxGeometry width="50" height="50" relative="1" as="geometry">
            <mxPoint x="150" y="355" as="sourcePoint" />
            <mxPoint x="191" y="409" as="targetPoint" />
          </mxGeometry>
        </mxCell>
        <mxCell id="ySw4D2naEqriKUV2pkmQ-1" value="12. status" style="edgeLabel;html=1;align=center;verticalAlign=middle;resizable=0;points=[];" parent="v4QRVOHur0yGDhManySC-35" vertex="1" connectable="0">
          <mxGeometry x="-0.3285" y="-2" relative="1" as="geometry">
            <mxPoint x="13" y="-2" as="offset" />
          </mxGeometry>
        </mxCell>
        <mxCell id="v4QRVOHur0yGDhManySC-44" value="" style="endArrow=classic;html=1;rounded=0;entryX=0;entryY=0.25;entryDx=0;entryDy=0;exitX=1;exitY=0.5;exitDx=0;exitDy=0;" parent="1" source="v4QRVOHur0yGDhManySC-13" target="v4QRVOHur0yGDhManySC-26" edge="1">
          <mxGeometry width="50" height="50" relative="1" as="geometry">
            <mxPoint x="355" y="470" as="sourcePoint" />
            <mxPoint x="405" y="420" as="targetPoint" />
          </mxGeometry>
        </mxCell>
        <mxCell id="v4QRVOHur0yGDhManySC-46" value="6. publish spec" style="edgeLabel;html=1;align=center;verticalAlign=middle;resizable=0;points=[];" parent="v4QRVOHur0yGDhManySC-44" vertex="1" connectable="0">
          <mxGeometry x="-0.4561" y="1" relative="1" as="geometry">
            <mxPoint x="28" y="1" as="offset" />
          </mxGeometry>
        </mxCell>
        <mxCell id="v4QRVOHur0yGDhManySC-45" value="" style="endArrow=none;html=1;rounded=0;entryX=0;entryY=0.75;entryDx=0;entryDy=0;exitX=1;exitY=0.5;exitDx=0;exitDy=0;startArrow=classic;startFill=1;endFill=0;" parent="1" source="v4QRVOHur0yGDhManySC-14" target="v4QRVOHur0yGDhManySC-26" edge="1">
          <mxGeometry width="50" height="50" relative="1" as="geometry">
            <mxPoint x="428" y="433" as="sourcePoint" />
            <mxPoint x="630" y="458" as="targetPoint" />
          </mxGeometry>
        </mxCell>
        <mxCell id="v4QRVOHur0yGDhManySC-47" value="7. subscribe status" style="edgeLabel;html=1;align=center;verticalAlign=middle;resizable=0;points=[];" parent="v4QRVOHur0yGDhManySC-45" vertex="1" connectable="0">
          <mxGeometry x="-0.5735" y="1" relative="1" as="geometry">
            <mxPoint x="46" as="offset" />
          </mxGeometry>
        </mxCell>
        <mxCell id="v4QRVOHur0yGDhManySC-48" value="" style="endArrow=classic;startArrow=classic;html=1;rounded=0;entryX=0;entryY=0.5;entryDx=0;entryDy=0;exitX=1;exitY=0.5;exitDx=0;exitDy=0;" parent="1" source="v4QRVOHur0yGDhManySC-26" target="v4QRVOHur0yGDhManySC-27" edge="1">
          <mxGeometry width="50" height="50" relative="1" as="geometry">
            <mxPoint x="355" y="470" as="sourcePoint" />
            <mxPoint x="405" y="420" as="targetPoint" />
          </mxGeometry>
        </mxCell>
        <mxCell id="v4QRVOHur0yGDhManySC-51" value="" style="group" parent="1" vertex="1" connectable="0">
          <mxGeometry x="533" y="567" width="60" height="60" as="geometry" />
        </mxCell>
        <mxCell id="v4QRVOHur0yGDhManySC-49" value="" style="shape=image;html=1;verticalAlign=top;verticalLabelPosition=bottom;labelBackgroundColor=#ffffff;imageAspect=0;aspect=fixed;image=https://cdn1.iconfinder.com/data/icons/bootstrap/16/broadcast-pin-128.png" parent="v4QRVOHur0yGDhManySC-51" vertex="1">
          <mxGeometry x="16" width="28" height="28" as="geometry" />
        </mxCell>
        <mxCell id="v4QRVOHur0yGDhManySC-50" value="event broadcaster" style="text;html=1;align=center;verticalAlign=middle;whiteSpace=wrap;rounded=0;" parent="v4QRVOHur0yGDhManySC-51" vertex="1">
          <mxGeometry y="30" width="60" height="30" as="geometry" />
        </mxCell>
        <mxCell id="v4QRVOHur0yGDhManySC-54" value="DB" style="shape=cylinder3;whiteSpace=wrap;html=1;boundedLbl=1;backgroundOutline=1;size=15;fillColor=#f5f5f5;fontColor=#333333;strokeColor=#666666;" parent="1" vertex="1">
          <mxGeometry x="645" y="300" width="60" height="80" as="geometry" />
        </mxCell>
        <mxCell id="v4QRVOHur0yGDhManySC-55" value="handler" style="rounded=1;whiteSpace=wrap;html=1;" parent="1" vertex="1">
          <mxGeometry x="301.5" y="320" width="63.5" height="40" as="geometry" />
        </mxCell>
        <mxCell id="v4QRVOHur0yGDhManySC-56" value="service" style="rounded=1;whiteSpace=wrap;html=1;" parent="1" vertex="1">
          <mxGeometry x="383.5" y="320" width="63.5" height="40" as="geometry" />
        </mxCell>
        <mxCell id="v4QRVOHur0yGDhManySC-57" value="dao" style="rounded=1;whiteSpace=wrap;html=1;" parent="1" vertex="1">
          <mxGeometry x="461.5" y="320" width="63.5" height="40" as="geometry" />
        </mxCell>
        <mxCell id="v4QRVOHur0yGDhManySC-58" value="" style="endArrow=classic;html=1;rounded=0;exitX=1;exitY=0.5;exitDx=0;exitDy=0;entryX=0;entryY=0.5;entryDx=0;entryDy=0;" parent="1" source="v4QRVOHur0yGDhManySC-7" target="v4QRVOHur0yGDhManySC-55" edge="1">
          <mxGeometry width="50" height="50" relative="1" as="geometry">
            <mxPoint x="355" y="390" as="sourcePoint" />
            <mxPoint x="405" y="340" as="targetPoint" />
          </mxGeometry>
        </mxCell>
        <mxCell id="v4QRVOHur0yGDhManySC-66" value="2. spec" style="edgeLabel;html=1;align=center;verticalAlign=middle;resizable=0;points=[];" parent="v4QRVOHur0yGDhManySC-58" vertex="1" connectable="0">
          <mxGeometry x="0.1586" y="-2" relative="1" as="geometry">
            <mxPoint as="offset" />
          </mxGeometry>
        </mxCell>
        <mxCell id="v4QRVOHur0yGDhManySC-59" value="" style="endArrow=classic;html=1;rounded=0;exitX=1;exitY=0.5;exitDx=0;exitDy=0;entryX=0;entryY=0.5;entryDx=0;entryDy=0;" parent="1" source="v4QRVOHur0yGDhManySC-55" target="v4QRVOHur0yGDhManySC-56" edge="1">
          <mxGeometry width="50" height="50" relative="1" as="geometry">
            <mxPoint x="298" y="428" as="sourcePoint" />
            <mxPoint x="332" y="350" as="targetPoint" />
          </mxGeometry>
        </mxCell>
        <mxCell id="v4QRVOHur0yGDhManySC-60" value="" style="endArrow=classic;html=1;rounded=0;exitX=1;exitY=0.5;exitDx=0;exitDy=0;entryX=0;entryY=0.5;entryDx=0;entryDy=0;" parent="1" source="v4QRVOHur0yGDhManySC-56" target="v4QRVOHur0yGDhManySC-57" edge="1">
          <mxGeometry width="50" height="50" relative="1" as="geometry">
            <mxPoint x="395" y="350" as="sourcePoint" />
            <mxPoint x="422" y="350" as="targetPoint" />
          </mxGeometry>
        </mxCell>
        <mxCell id="v4QRVOHur0yGDhManySC-61" value="" style="endArrow=classic;html=1;rounded=0;entryX=0;entryY=0.5;entryDx=0;entryDy=0;entryPerimeter=0;exitX=1;exitY=0.5;exitDx=0;exitDy=0;" parent="1" source="v4QRVOHur0yGDhManySC-57" target="v4QRVOHur0yGDhManySC-54" edge="1">
          <mxGeometry width="50" height="50" relative="1" as="geometry">
            <mxPoint x="565" y="340" as="sourcePoint" />
            <mxPoint x="512" y="350" as="targetPoint" />
          </mxGeometry>
        </mxCell>
        <mxCell id="v4QRVOHur0yGDhManySC-67" value="3. persistent to db" style="edgeLabel;html=1;align=center;verticalAlign=middle;resizable=0;points=[];" parent="v4QRVOHur0yGDhManySC-61" vertex="1" connectable="0">
          <mxGeometry x="0.175" y="3" relative="1" as="geometry">
            <mxPoint x="-13" y="1" as="offset" />
          </mxGeometry>
        </mxCell>
        <mxCell id="v4QRVOHur0yGDhManySC-75" value="" style="group" parent="1" vertex="1" connectable="0">
          <mxGeometry x="147" y="530" width="60" height="53" as="geometry" />
        </mxCell>
        <mxCell id="v4QRVOHur0yGDhManySC-72" value="" style="sketch=0;outlineConnect=0;fontColor=#232F3E;gradientColor=none;fillColor=#000000;strokeColor=none;dashed=0;verticalLabelPosition=bottom;verticalAlign=top;align=center;html=1;fontSize=12;fontStyle=0;aspect=fixed;pointerEvents=1;shape=mxgraph.aws4.table;" parent="v4QRVOHur0yGDhManySC-75" vertex="1">
          <mxGeometry x="15" width="30" height="30" as="geometry" />
        </mxCell>
        <mxCell id="v4QRVOHur0yGDhManySC-73" value="&lt;font style=&quot;font-size: 10px;&quot;&gt;events table&lt;/font&gt;" style="text;html=1;align=center;verticalAlign=middle;whiteSpace=wrap;rounded=0;" parent="v4QRVOHur0yGDhManySC-75" vertex="1">
          <mxGeometry y="23" width="60" height="30" as="geometry" />
        </mxCell>
        <mxCell id="v4QRVOHur0yGDhManySC-76" value="" style="group" parent="1" vertex="1" connectable="0">
          <mxGeometry x="147" y="583" width="90" height="53" as="geometry" />
        </mxCell>
        <mxCell id="v4QRVOHur0yGDhManySC-77" value="" style="sketch=0;outlineConnect=0;fontColor=#232F3E;gradientColor=none;fillColor=#000000;strokeColor=none;dashed=0;verticalLabelPosition=bottom;verticalAlign=top;align=center;html=1;fontSize=12;fontStyle=0;aspect=fixed;pointerEvents=1;shape=mxgraph.aws4.table;" parent="v4QRVOHur0yGDhManySC-76" vertex="1">
          <mxGeometry x="15" width="30" height="30" as="geometry" />
        </mxCell>
        <mxCell id="v4QRVOHur0yGDhManySC-78" value="&lt;font style=&quot;font-size: 10px;&quot;&gt;status_events table&lt;/font&gt;" style="text;html=1;align=center;verticalAlign=middle;whiteSpace=wrap;rounded=0;" parent="v4QRVOHur0yGDhManySC-76" vertex="1">
          <mxGeometry x="-15" y="23" width="90" height="30" as="geometry" />
        </mxCell>
        <mxCell id="v4QRVOHur0yGDhManySC-79" value="" style="endArrow=classic;html=1;rounded=0;exitX=1;exitY=0.5;exitDx=0;exitDy=0;" parent="1" target="v4QRVOHur0yGDhManySC-72" edge="1">
          <mxGeometry width="50" height="50" relative="1" as="geometry">
            <mxPoint x="259" y="415" as="sourcePoint" />
            <mxPoint x="192" y="521.3181818181818" as="targetPoint" />
            <Array as="points">
              <mxPoint x="287" y="415" />
              <mxPoint x="287" y="545" />
            </Array>
          </mxGeometry>
        </mxCell>
        <mxCell id="v4QRVOHur0yGDhManySC-80" value="4. create&lt;br&gt;spec&lt;br&gt;events" style="edgeLabel;html=1;align=center;verticalAlign=middle;resizable=0;points=[];" parent="v4QRVOHur0yGDhManySC-79" vertex="1" connectable="0">
          <mxGeometry x="0.1586" y="-2" relative="1" as="geometry">
            <mxPoint y="-29" as="offset" />
          </mxGeometry>
        </mxCell>
        <mxCell id="v4QRVOHur0yGDhManySC-81" value="" style="endArrow=classic;html=1;rounded=0;exitX=0.75;exitY=1;exitDx=0;exitDy=0;entryX=0.5;entryY=0;entryDx=0;entryDy=0;" parent="1" source="v4QRVOHur0yGDhManySC-14" target="v4QRVOHur0yGDhManySC-78" edge="1">
          <mxGeometry width="50" height="50" relative="1" as="geometry">
            <mxPoint x="298" y="428" as="sourcePoint" />
            <mxPoint x="167" y="660" as="targetPoint" />
            <Array as="points">
              <mxPoint x="543" y="500" />
              <mxPoint x="617" y="500" />
              <mxPoint x="617" y="670" />
              <mxPoint x="543" y="670" />
              <mxPoint x="177" y="670" />
            </Array>
          </mxGeometry>
        </mxCell>
        <mxCell id="v4QRVOHur0yGDhManySC-82" value="9. create status events" style="edgeLabel;html=1;align=center;verticalAlign=middle;resizable=0;points=[];" parent="v4QRVOHur0yGDhManySC-81" vertex="1" connectable="0">
          <mxGeometry x="0.1586" y="-2" relative="1" as="geometry">
            <mxPoint x="-2" y="1" as="offset" />
          </mxGeometry>
        </mxCell>
        <mxCell id="v4QRVOHur0yGDhManySC-83" value="" style="endArrow=classic;html=1;rounded=0;entryX=0.75;entryY=0;entryDx=0;entryDy=0;exitX=0;exitY=0.5;exitDx=0;exitDy=0;" parent="1" source="v4QRVOHur0yGDhManySC-19" target="v4QRVOHur0yGDhManySC-73" edge="1">
          <mxGeometry width="50" height="50" relative="1" as="geometry">
            <mxPoint x="316" y="437" as="sourcePoint" />
            <mxPoint x="382" y="510" as="targetPoint" />
          </mxGeometry>
        </mxCell>
        <mxCell id="v4QRVOHur0yGDhManySC-84" value="watch" style="edgeLabel;html=1;align=center;verticalAlign=middle;resizable=0;points=[];" parent="v4QRVOHur0yGDhManySC-83" vertex="1" connectable="0">
          <mxGeometry x="-0.2012" y="-4" relative="1" as="geometry">
            <mxPoint x="1" y="4" as="offset" />
          </mxGeometry>
        </mxCell>
        <mxCell id="v4QRVOHur0yGDhManySC-85" value="" style="endArrow=classic;html=1;rounded=0;exitX=0;exitY=0.5;exitDx=0;exitDy=0;" parent="1" source="v4QRVOHur0yGDhManySC-20" target="v4QRVOHur0yGDhManySC-77" edge="1">
          <mxGeometry width="50" height="50" relative="1" as="geometry">
            <mxPoint x="299" y="540" as="sourcePoint" />
            <mxPoint x="401" y="540" as="targetPoint" />
          </mxGeometry>
        </mxCell>
        <mxCell id="v4QRVOHur0yGDhManySC-86" value="watch" style="edgeLabel;html=1;align=center;verticalAlign=middle;resizable=0;points=[];" parent="v4QRVOHur0yGDhManySC-85" vertex="1" connectable="0">
          <mxGeometry x="-0.2012" y="-4" relative="1" as="geometry">
            <mxPoint x="1" y="2" as="offset" />
          </mxGeometry>
        </mxCell>
        <mxCell id="v4QRVOHur0yGDhManySC-91" value="" style="endArrow=classic;startArrow=none;html=1;rounded=0;entryX=0;entryY=0.5;entryDx=0;entryDy=0;exitX=1;exitY=0.5;exitDx=0;exitDy=0;startFill=0;" parent="1" source="v4QRVOHur0yGDhManySC-19" target="v4QRVOHur0yGDhManySC-13" edge="1">
          <mxGeometry width="50" height="50" relative="1" as="geometry">
            <mxPoint x="267" y="570" as="sourcePoint" />
            <mxPoint x="317" y="520" as="targetPoint" />
            <Array as="points">
              <mxPoint x="507" y="553" />
              <mxPoint x="507" y="490" />
              <mxPoint x="387" y="490" />
              <mxPoint x="387" y="423" />
            </Array>
          </mxGeometry>
        </mxCell>
        <mxCell id="v4QRVOHur0yGDhManySC-92" value="5. handle spec events" style="edgeLabel;html=1;align=center;verticalAlign=middle;resizable=0;points=[];" parent="v4QRVOHur0yGDhManySC-91" vertex="1" connectable="0">
          <mxGeometry x="-0.0415" y="2" relative="1" as="geometry">
            <mxPoint x="-8" y="-2" as="offset" />
          </mxGeometry>
        </mxCell>
        <mxCell id="v4QRVOHur0yGDhManySC-95" value="" style="endArrow=classic;html=1;rounded=0;entryX=0.25;entryY=0;entryDx=0;entryDy=0;exitX=1;exitY=0.5;exitDx=0;exitDy=0;" parent="1" source="v4QRVOHur0yGDhManySC-20" target="v4QRVOHur0yGDhManySC-50" edge="1">
          <mxGeometry width="50" height="50" relative="1" as="geometry">
            <mxPoint x="417" y="570" as="sourcePoint" />
            <mxPoint x="467" y="520" as="targetPoint" />
          </mxGeometry>
        </mxCell>
        <mxCell id="v4QRVOHur0yGDhManySC-96" value="10. broadcast&lt;br&gt;status" style="edgeLabel;html=1;align=center;verticalAlign=middle;resizable=0;points=[];" parent="v4QRVOHur0yGDhManySC-95" vertex="1" connectable="0">
          <mxGeometry x="-0.0789" y="-2" relative="1" as="geometry">
            <mxPoint x="3" y="-6" as="offset" />
          </mxGeometry>
        </mxCell>
        <mxCell id="v4QRVOHur0yGDhManySC-97" value="" style="endArrow=classic;html=1;rounded=0;entryX=0.5;entryY=1;entryDx=0;entryDy=0;exitX=0.5;exitY=1;exitDx=0;exitDy=0;" parent="1" source="v4QRVOHur0yGDhManySC-50" target="v4QRVOHur0yGDhManySC-8" edge="1">
          <mxGeometry width="50" height="50" relative="1" as="geometry">
            <mxPoint x="417" y="570" as="sourcePoint" />
            <mxPoint x="467" y="520" as="targetPoint" />
            <Array as="points">
              <mxPoint x="563" y="700" />
              <mxPoint x="67" y="700" />
              <mxPoint x="67" y="680" />
              <mxPoint x="67" y="510" />
              <mxPoint x="190" y="510" />
            </Array>
          </mxGeometry>
        </mxCell>
        <mxCell id="v4QRVOHur0yGDhManySC-98" value="11. forward status" style="edgeLabel;html=1;align=center;verticalAlign=middle;resizable=0;points=[];" parent="v4QRVOHur0yGDhManySC-97" vertex="1" connectable="0">
          <mxGeometry x="-0.1723" relative="1" as="geometry">
            <mxPoint x="68" as="offset" />
          </mxGeometry>
        </mxCell>
        <mxCell id="v4QRVOHur0yGDhManySC-99" value="" style="endArrow=classic;html=1;rounded=0;entryX=0.5;entryY=1;entryDx=0;entryDy=0;exitX=0;exitY=0.75;exitDx=0;exitDy=0;" parent="1" source="v4QRVOHur0yGDhManySC-14" target="v4QRVOHur0yGDhManySC-56" edge="1">
          <mxGeometry width="50" height="50" relative="1" as="geometry">
            <mxPoint x="413" y="570" as="sourcePoint" />
            <mxPoint x="463" y="520" as="targetPoint" />
            <Array as="points">
              <mxPoint x="353" y="467" />
              <mxPoint x="353" y="410" />
              <mxPoint x="415" y="410" />
            </Array>
          </mxGeometry>
        </mxCell>
        <mxCell id="v4QRVOHur0yGDhManySC-100" value="8. save&lt;br&gt;status to db" style="edgeLabel;html=1;align=center;verticalAlign=middle;resizable=0;points=[];" parent="v4QRVOHur0yGDhManySC-99" vertex="1" connectable="0">
          <mxGeometry x="-0.1294" y="1" relative="1" as="geometry">
            <mxPoint as="offset" />
          </mxGeometry>
        </mxCell>
        <mxCell id="NjPp211RUwmUiMDJxdpB-1" value="" style="group" parent="1" vertex="1" connectable="0">
          <mxGeometry x="123" y="258" width="70" height="53" as="geometry" />
        </mxCell>
        <mxCell id="NjPp211RUwmUiMDJxdpB-2" value="" style="sketch=0;outlineConnect=0;fontColor=#232F3E;gradientColor=none;fillColor=#000000;strokeColor=none;dashed=0;verticalLabelPosition=bottom;verticalAlign=top;align=center;html=1;fontSize=12;fontStyle=0;aspect=fixed;pointerEvents=1;shape=mxgraph.aws4.table;" parent="NjPp211RUwmUiMDJxdpB-1" vertex="1">
          <mxGeometry x="15" width="30" height="30" as="geometry" />
        </mxCell>
        <mxCell id="NjPp211RUwmUiMDJxdpB-3" value="&lt;span style=&quot;font-size: 10px;&quot;&gt;instances&amp;nbsp;&lt;/span&gt;&lt;span style=&quot;font-size: 10px; background-color: transparent; color: light-dark(rgb(0, 0, 0), rgb(255, 255, 255));&quot;&gt;table&lt;/span&gt;" style="text;html=1;align=center;verticalAlign=middle;whiteSpace=wrap;rounded=0;" parent="NjPp211RUwmUiMDJxdpB-1" vertex="1">
          <mxGeometry y="23" width="70" height="30" as="geometry" />
        </mxCell>
        <mxCell id="NjPp211RUwmUiMDJxdpB-5" value="" style="endArrow=classic;html=1;rounded=0;exitX=1;exitY=0.5;exitDx=0;exitDy=0;" parent="1" source="v4QRVOHur0yGDhManySC-4" target="NjPp211RUwmUiMDJxdpB-2" edge="1">
          <mxGeometry width="50" height="50" relative="1" as="geometry">
            <mxPoint x="233" y="470" as="sourcePoint" />
            <mxPoint x="283" y="420" as="targetPoint" />
            <Array as="points">
              <mxPoint x="243" y="322" />
              <mxPoint x="243" y="273" />
            </Array>
          </mxGeometry>
        </mxCell>
        <mxCell id="NjPp211RUwmUiMDJxdpB-6" value="check instances" style="edgeLabel;html=1;align=center;verticalAlign=middle;resizable=0;points=[];" parent="NjPp211RUwmUiMDJxdpB-5" vertex="1" connectable="0">
          <mxGeometry x="-0.2617" y="-3" relative="1" as="geometry">
            <mxPoint as="offset" />
          </mxGeometry>
        </mxCell>
        <mxCell id="NjPp211RUwmUiMDJxdpB-7" value="" style="endArrow=classic;html=1;rounded=0;exitX=0.001;exitY=0.387;exitDx=0;exitDy=0;exitPerimeter=0;" parent="1" source="v4QRVOHur0yGDhManySC-14" target="NjPp211RUwmUiMDJxdpB-2" edge="1">
          <mxGeometry width="50" height="50" relative="1" as="geometry">
            <mxPoint x="233" y="470" as="sourcePoint" />
            <mxPoint x="283" y="420" as="targetPoint" />
            <Array as="points">
              <mxPoint x="403" y="456" />
              <mxPoint x="403" y="250" />
              <mxPoint x="153" y="250" />
            </Array>
          </mxGeometry>
        </mxCell>
        <mxCell id="NjPp211RUwmUiMDJxdpB-8" value="watch" style="edgeLabel;html=1;align=center;verticalAlign=middle;resizable=0;points=[];" parent="NjPp211RUwmUiMDJxdpB-7" vertex="1" connectable="0">
          <mxGeometry x="0.5581" y="1" relative="1" as="geometry">
            <mxPoint as="offset" />
          </mxGeometry>
        </mxCell>
        <mxCell id="8t8l8n_a3MnBNb5pc4Nc-1" value="Restful Client" style="rounded=1;whiteSpace=wrap;html=1;arcSize=10;" vertex="1" parent="1">
          <mxGeometry x="10" y="385" width="45" height="39" as="geometry" />
        </mxCell>
        <mxCell id="8t8l8n_a3MnBNb5pc4Nc-2" value="" style="endArrow=classic;html=1;rounded=0;exitX=0;exitY=0.25;exitDx=0;exitDy=0;entryX=1;entryY=0.5;entryDx=0;entryDy=0;startFill=1;startArrow=classic;endFill=1;" edge="1" parent="1" source="v4QRVOHur0yGDhManySC-7" target="8t8l8n_a3MnBNb5pc4Nc-1">
          <mxGeometry width="50" height="50" relative="1" as="geometry">
            <mxPoint x="400" y="350" as="sourcePoint" />
            <mxPoint x="60" y="405" as="targetPoint" />
          </mxGeometry>
        </mxCell>
        <mxCell id="8t8l8n_a3MnBNb5pc4Nc-3" value="get/list/&lt;br&gt;delete" style="edgeLabel;html=1;align=center;verticalAlign=middle;resizable=0;points=[];" vertex="1" connectable="0" parent="8t8l8n_a3MnBNb5pc4Nc-2">
          <mxGeometry x="0.4225" y="2" relative="1" as="geometry">
            <mxPoint x="15" as="offset" />
          </mxGeometry>
        </mxCell>
      </root>
    </mxGraphModel>
  </diagram>
</mxfile>
